# xmcd
#
# Track frame offsets:
#	150
#	22320
#	42720
#	69803
#	89827
#	115750
#	155349
#	162598
#	175702
#
# Disc length: 2504 seconds
#
# Revision: 1
# Processed by: cddbd v1.5.2PL0 Copyright (c) Steve Scherf et al.
# Submitted via: EasyCDDAExtractor 11.1.0.1
#
DISCID=7809c609
DTITLE=Leong Lau - Dragon Man
DYEAR=1976
DGENRE=Blues
TTITLE0=The Atlas Revolution
TTITLE1=Ghost Drums
TTITLE2=Rhythm Pounding
TTITLE3=Dragon Man
TTITLE4=Soul Baby
TTITLE5=Deep In The Jungle
TTITLE6=Love Poem (Dedicated To Kuan)
TTITLE7=Late Night Flyer
TTITLE8=One Dimensional Man
EXTD=
EXTT0=
EXTT1=
EXTT2=
EXTT3=
EXTT4=
EXTT5=
EXTT6=
EXTT7=
EXTT8=
PLAYORDER=
